<?xml version="1.0" encoding="UTF-8" standalone="no"?>
<svg
   xmlns:dc="http://purl.org/dc/elements/1.1/"
   xmlns:cc="http://creativecommons.org/ns#"
   xmlns:rdf="http://www.w3.org/1999/02/22-rdf-syntax-ns#"
   xmlns:svg="http://www.w3.org/2000/svg"
   xmlns="http://www.w3.org/2000/svg"
   xmlns:sodipodi="http://sodipodi.sourceforge.net/DTD/sodipodi-0.dtd"
   xmlns:inkscape="http://www.inkscape.org/namespaces/inkscape"
   id="svg2"
   sodipodi:docname="logo.svg"
   viewBox="0 0 200 200"
   version="1.1"
   inkscape:version="1.0.1 (3bc2e813f5, 2020-09-07, custom)"
   width="200"
   height="200">
  <defs
     id="defs4">
    <filter
       id="filter3815"
       height="1.286"
       width="1.1062"
       color-interpolation-filters="sRGB"
       y="-0.14300001"
       x="-0.053078"
       inkscape:collect="always">
      <feGaussianBlur
         id="feGaussianBlur3817"
         stdDeviation="15.588259"
         inkscape:collect="always" />
    </filter>
  </defs>
  <sodipodi:namedview
     id="base"
     bordercolor="#666666"
     inkscape:pageshadow="2"
     inkscape:window-y="0"
     fit-margin-left="0"
     pagecolor="#ffffff"
     fit-margin-top="0"
     inkscape:window-maximized="1"
     inkscape:zoom="2.56"
     inkscape:window-x="0"
     inkscape:window-height="1059"
     showgrid="false"
     borderopacity="1.0"
     inkscape:current-layer="g3877"
     inkscape:cx="26.018213"
     inkscape:cy="123.5289"
     fit-margin-right="0"
     fit-margin-bottom="0"
     inkscape:window-width="1914"
     inkscape:pageopacity="0"
     inkscape:document-units="px"
     inkscape:document-rotation="0" />
  <g
     id="layer1"
     inkscape:label="Layer 1"
     inkscape:groupmode="layer"
     transform="translate(-41.084447,-57.058283)">
    <g
       id="g3877"
       transform="matrix(0.15879535,0,0,0.29734475,113.74274,102.28839)">
      <g
         id="g3819">
        <path
           id="path3806"
           style="fill:#24221c;filter:url(#filter3815)"
           inkscape:connector-curvature="0"
           d="m 736.74,196.94 c -14.928,-0.11812 -33.671,2.9332 -55.188,4.875 -143.77,12.975 -318.09,17.082 -457.28,110.56 -19.617,13.174 -28.069,48.621 -30.969,64.562 -43.506,18.319 -86.539,38.662 -129.06,61.469 l 9.6875,20.156 c 42.403,-24.758 85.326,-46.891 128.72,-66.875 12.753,7.303 35.309,17.723 58.469,16.281 138.56,-8.6233 323.04,-80.256 448.09,-143.97 24.749,-12.609 56.625,-33.596 59.875,-52.969 -6.3147,-10.684 -17.416,-13.976 -32.344,-14.094 z" />
        <path
           id="path2989"
           sodipodi:nodetypes="sscsscs"
           style="fill:#ff9f00;fill-opacity:1"
           inkscape:connector-curvature="0"
           d="m 236.13,309.42 c 139.2,-93.481 313.52,-97.603 457.29,-110.58 43.033,-3.8837 74.912,-12.154 87.541,9.2149 -3.2497,19.373 -35.147,40.376 -59.897,52.985 -125.06,63.713 -309.51,135.36 -448.07,143.98 -35.164,2.1883 -69.111,-23.037 -69.111,-23.037 0,0 6.6203,-55.353 32.252,-72.567 z" />
        <path
           id="path3796"
           sodipodi:nodetypes="cccccccccccccscccccccccccccccccccccc"
           style="opacity:0.80282;fill:#552200"
           inkscape:connector-curvature="0"
           d="m 271.78,287.78 c -2.5524,1.3981 -5.0914,2.832 -7.625,4.2812 l 20.013,36.206 z m -10.59,5.97 c -2.7658,1.6089 -5.508,3.2655 -8.25,4.9375 l 18.294,28.834 z m -10.75,6.4688 c -2.6119,1.6156 -5.2234,3.2314 -7.8125,4.9062 l 14.957,17.069 z m -10.469,6.6562 c -1.2805,0.84115 -2.569,1.6752 -3.8438,2.5312 -1.6976,1.1401 -3.3093,2.4587 -4.8438,3.9062 l 14.894,11.934 z m -11.125,8.9688 c -1.5045,1.6555 -2.9408,3.4171 -4.2812,5.3125 l 13.24,7.1213 z m -6.625,8.875 c -0.48152,0.77761 -0.94768,1.5733 -1.4062,2.375 l 7.8885,7.2579 z m -3.75,6.7812 c -0.58846,1.1755 -1.1729,2.3603 -1.7188,3.5625 l 8.1544,6.9025 c -7.3545,-26.93 -3.7839,-4.6973 -6.4356,-10.465 z m -3.5938,7.9375 c -5.1057,12.563 -8.0885,25.621 -9.625,33.906 l 14.281,18.125 c 8.6134,4.5028 20.077,9.4345 32.688,11.969 l 9.1562,0.8125 c -27.247,-13.681 -53.01,-29.011 -45.58,-60.778 z" />
        <path
           id="path2985"
           sodipodi:nodetypes="cccc"
           style="fill:#ffcb00;stroke:#552200;stroke-width:3;fill-opacity:1;stroke-opacity:0.22490808"
           inkscape:connector-curvature="0"
           d="m 76.088,435.43 c 195,-104.59 400.69,-157.36 613.82,-200.79 -207.53,50.3 -411.35,108.39 -604.13,220.94 z" />
        <path
           id="path3801"
           sodipodi:nodetypes="cccccccccccccccccccccccccccccccccccccccccccc"
           style="opacity:0.64319;fill:#552200"
           inkscape:connector-curvature="0"
           d="m 742.31,236.34 9.4375,6.25 c 0.8325,-0.59518 1.6849,-1.1765 2.5,-1.7812 z m -10.625,5.3125 9.9375,7.7188 c 1.8303,-1.1509 3.643,-2.3272 5.4375,-3.5312 z m -14.438,9.125 9.9375,7 c 2.2179,-1.201 4.4604,-2.4422 6.7188,-3.75 z m -15.969,5.3125 10.375,9.6875 c 3.1512,-1.578 6.2943,-3.1805 9.375,-4.75 z m -26.421,6.795 21.234,10.58 c 2.5638,-1.2489 5.0703,-2.5042 7.5938,-3.75 z m -18.845,8.335 24.016,9.9326 c 3.1404,-1.4882 6.256,-2.9507 9.3438,-4.4375 z m -24.189,6.0938 31.954,11.464 c 3.11,-1.41 6.2,-2.84 9.24,-4.27 z m -20.474,7.5362 37.428,10.74 c 2.7692,-1.2453 5.5432,-2.4704 8.2812,-3.7188 z m -21.339,5.2549 41.079,13.329 c 3.6999,-1.6152 7.3796,-3.2199 11.031,-4.8438 z m -28.75,8.52 53.25,11.94 c 3.0375,-1.2893 6.0528,-2.5777 9.0625,-3.875 z m -25.05,9.86 59.05,10.14 c 3.7769,-1.5506 7.5407,-3.1214 11.281,-4.6875 z" />
      </g>
      <path
         id="path3828"
         style="fill:#24221c;filter:url(#filter3815)"
         inkscape:connector-curvature="0"
         transform="matrix(-1,0,0,1,350.05,10.377)"
         d="m 736.74,196.94 c -14.928,-0.11812 -33.671,2.9332 -55.188,4.875 -143.77,12.975 -318.09,17.082 -457.28,110.56 -19.617,13.174 -28.069,48.621 -30.969,64.562 -43.506,18.319 -86.539,38.662 -129.06,61.469 l 9.6875,20.156 c 42.403,-24.758 85.326,-46.891 128.72,-66.875 12.753,7.303 35.309,17.723 58.469,16.281 138.56,-8.6233 323.04,-80.256 448.09,-143.97 24.749,-12.609 56.625,-33.596 59.875,-52.969 -6.3147,-10.684 -17.416,-13.976 -32.344,-14.094 z" />
      <path
         id="path3830"
         sodipodi:nodetypes="sscsscs"
         style="fill:#ff613d;fill-opacity:1"
         inkscape:connector-curvature="0"
         d="m 113.92,319.79 c -139.2,-93.481 -313.52,-97.603 -457.29,-110.58 -43.033,-3.8837 -74.912,-12.154 -87.541,9.2149 3.2497,19.373 35.147,40.376 59.897,52.985 125.06,63.713 309.51,135.36 448.07,143.98 35.164,2.1883 69.111,-23.037 69.111,-23.037 0,0 -6.6203,-55.353 -32.252,-72.567 z" />
      <path
         id="path3832"
         sodipodi:nodetypes="cccccccccccccscccccccccccccccccccccc"
         style="opacity:0.80282;fill:#552200"
         inkscape:connector-curvature="0"
         d="m 78.269,298.16 c 2.5524,1.3981 5.0914,2.832 7.625,4.2812 l -20.013,36.206 z m 10.594,5.9688 c 2.7658,1.6089 5.508,3.2655 8.25,4.9375 l -18.294,28.834 z m 10.75,6.4688 c 2.6119,1.6156 5.2234,3.2314 7.8125,4.9062 l -14.957,17.069 z m 10.469,6.6562 c 1.2805,0.84115 2.569,1.6752 3.8438,2.5312 1.6976,1.1401 3.3093,2.4587 4.8438,3.9062 l -14.894,11.934 z m 11.125,8.9688 c 1.5045,1.6555 2.9408,3.4171 4.2812,5.3125 l -13.24,7.1213 z m 6.625,8.875 c 0.48152,0.77761 0.94768,1.5733 1.4062,2.375 l -7.8885,7.2579 z m 3.75,6.7812 c 0.58846,1.1755 1.1729,2.3603 1.7188,3.5625 l -8.1544,6.9025 c 7.3545,-26.93 3.7839,-4.6973 6.4356,-10.465 z m 3.5938,7.9375 c 5.1057,12.563 8.0885,25.621 9.625,33.906 l -14.281,18.125 c -8.6134,4.5028 -20.077,9.4345 -32.688,11.969 l -9.1562,0.8125 c 27.247,-13.681 53.01,-29.011 45.58,-60.778 z" />
      <path
         id="path3834"
         sodipodi:nodetypes="cccc"
         style="fill:#ff4bda;stroke:#000000;stroke-width:3;fill-opacity:1;stroke-opacity:0.10222121"
         inkscape:connector-curvature="0"
         d="M 273.96,445.81 C 78.96,341.22 -126.73,288.45 -339.86,245.02 -132.33,295.32 71.49,353.4 264.27,465.96 Z" />
      <path
         id="path3836"
         sodipodi:nodetypes="cccccccccccccccccccccccccccccccccccccccccccc"
         style="opacity:0.64319;fill:#000000;fill-opacity:0.50482535"
         inkscape:connector-curvature="0"
         d="m -392.26,246.72 -9.4375,6.25 c -0.8325,-0.59518 -1.6849,-1.1765 -2.5,-1.7812 z m 10.625,5.3125 -9.9375,7.7188 c -1.8303,-1.1509 -3.643,-2.3272 -5.4375,-3.5312 z m 14.438,9.125 -9.9375,7 c -2.2179,-1.201 -4.4604,-2.4422 -6.7188,-3.75 z m 15.969,5.3125 -10.375,9.6875 c -3.1512,-1.578 -6.2943,-3.1805 -9.375,-4.75 z m 26.421,6.795 -21.234,10.58 c -2.5638,-1.2489 -5.0703,-2.5042 -7.5938,-3.75 z m 18.845,8.335 -24.016,9.9326 c -3.1404,-1.4882 -6.256,-2.9507 -9.3438,-4.4375 z m 24.189,6.0938 -31.954,11.464 c -3.0892,-1.4244 -6.1738,-2.8554 -9.2188,-4.2812 z m 20.474,7.5362 -37.428,10.74 c -2.7692,-1.2453 -5.5432,-2.4704 -8.2812,-3.7188 z m 21.339,5.2549 -41.079,13.329 c -3.6999,-1.6152 -7.3796,-3.2199 -11.031,-4.8438 z m 28.76,8.5077 -53.246,11.946 c -3.0375,-1.2893 -6.0528,-2.5777 -9.0625,-3.875 z m 25.054,9.8662 -59.049,10.143 c -3.7769,-1.5506 -7.5407,-3.1214 -11.281,-4.6875 z" />
      <path
         id="path3840"
         d="m 736.74,196.94 c -14.928,-0.11812 -33.671,2.9332 -55.188,4.875 -143.77,12.975 -318.09,17.082 -457.28,110.56 -19.617,13.174 -28.069,48.621 -30.969,64.562 -43.506,18.319 -86.539,38.662 -129.06,61.469 l 9.6875,20.156 c 42.403,-24.758 85.326,-46.891 128.72,-66.875 12.753,7.303 35.309,17.723 58.469,16.281 138.56,-8.6233 323.04,-80.256 448.09,-143.97 24.749,-12.609 56.625,-33.596 59.875,-52.969 -6.3147,-10.684 -17.416,-13.976 -32.344,-14.094 z"
         style="fill:#24221c;filter:url(#filter3815)"
         transform="matrix(-0.79496,-0.60666,-0.60666,0.79496,543.63,183.56)"
         inkscape:connector-curvature="0" />
      <path
         id="path3842"
         d="M 168.2,286.28 C 114.26,127.52 -21.82,18.49 -128.24,-79.04 c -31.853,-29.194 -52.179,-55.108 -75.182,-45.782 -9.1695,17.372 3.4459,53.42 15.471,78.458 60.762,126.52 163.93,295.37 268.85,386.29 26.626,23.072 68.917,23.614 68.917,23.614 0,0 28.318,-48.02 18.385,-77.254 z"
         sodipodi:nodetypes="sscsscs"
         style="fill:#37adff;fill-opacity:1"
         inkscape:connector-curvature="0" />
      <path
         id="path3844"
         d="m 152.99,247.45 c 1.1809,2.6599 2.3294,5.3402 3.4643,8.0292 l -37.874,16.641 z m 4.8006,11.172 c 1.2226,2.9569 2.3976,5.9375 3.563,8.9301 l -32.036,11.824 z m 4.6215,11.664 c 1.0963,2.8689 2.192,5.7377 3.2342,8.6398 l -22.245,4.4952 z m 4.2842,11.642 c 0.50768,1.4455 1.026,2.8902 1.52,4.3441 0.65789,1.9362 1.1392,3.9622 1.4808,6.0438 l -19.08,0.45118 z m 3.4029,13.879 c 0.1917,2.2288 0.26478,4.5005 0.18054,6.8205 l -14.846,-2.3712 z m -0.11751,11.074 c -0.089,0.91029 -0.20111,1.8257 -0.32291,2.7412 l -10.674,0.9841 z m -1.1328,7.6658 c -0.24535,1.2915 -0.4995,2.5879 -0.79489,3.8747 l -10.67,0.54027 c 22.184,-16.947 5.8577,-1.4386 11.465,-4.415 z m -1.9585,8.4902 c -3.5628,13.085 -9.1131,25.275 -12.918,32.793 l -22.349,5.7448 c -9.579,-1.6458 -21.684,-4.6802 -33.246,-10.316 l -7.762,-4.89 c 29.96,5.6541 59.741,9.097 73.106,-20.664 z"
         sodipodi:nodetypes="cccccccccccccscccccccccccccccccccccc"
         style="opacity:0.80282;fill:#000000;fill-opacity:0.4994179"
         inkscape:connector-curvature="0" />
      <path
         id="path3846"
         d="M 218.98,483.55 C 127.41,282.1 -4.09,115.37 -147.17,-48.46 -12.71,117.43 114.08,287.26 199.05,493.69 Z"
         sodipodi:nodetypes="cccc"
         style="fill:#af51f5;stroke:#ff00cc;stroke-width:3;fill-opacity:1;stroke-opacity:0.50199145"
         inkscape:connector-curvature="0" />
      <path
         id="path3848"
         d="m -189.86,-78.891 -11.294,-0.75687 c -0.30073,-0.97819 -0.62571,-1.9575 -0.90678,-2.9327 z m 5.2236,10.669 -12.583,0.1074 c -0.75681,-2.0253 -1.4843,-4.0601 -2.1803,-6.1059 z m 5.9414,16.013 -12.147,-0.46398 c -1.0346,-2.3003 -2.0642,-4.6474 -3.0662,-7.0571 z m 9.4716,13.911 -14.125,1.4071 c -1.5478,-3.1662 -3.0742,-6.3469 -4.5711,-9.4635 z m 16.881,21.43 -23.298,-4.4709 c -1.2804,-2.5481 -2.5115,-5.0666 -3.7618,-7.5879 z m 9.9244,18.058 -25.117,-6.6735 c -1.5937,-3.0882 -3.1832,-6.141 -4.7358,-9.1961 z m 15.532,19.519 -32.357,-10.272 c -1.5917,-3.0064 -3.1757,-6.0154 -4.7313,-8.9961 z m 11.704,18.412 -36.27,-14.168 c -1.446,-2.6699 -2.9079,-5.3267 -4.3272,-7.9802 z m 13.776,17.123 -40.743,-14.325 c -1.9614,-3.5286 -3.9131,-7.0366 -5.8309,-10.543 z m 17.702,24.211 -49.575,-22.805 c -1.6325,-2.8677 -3.248,-5.7212 -4.8535,-8.5783 z m 13.931,23.042 -53.095,-27.76 c -2.0618,-3.5239 -4.101,-7.056 -6.1244,-10.57 z"
         sodipodi:nodetypes="cccccccccccccccccccccccccccccccccccccccccccc"
         style="opacity:0.64319;fill:#ffffff;fill-opacity:0.49920344"
         inkscape:connector-curvature="0" />
      <path
         id="path3852"
         style="fill:#24221c;filter:url(#filter3815)"
         inkscape:connector-curvature="0"
         transform="matrix(0.79496,-0.60666,0.60666,0.79496,-209.1,182.08)"
         d="m 736.74,196.94 c -14.928,-0.11812 -33.671,2.9332 -55.188,4.875 -143.77,12.975 -318.09,17.082 -457.28,110.56 -19.617,13.174 -28.069,48.621 -30.969,64.562 -43.506,18.319 -86.539,38.662 -129.06,61.469 l 9.6875,20.156 c 42.403,-24.758 85.326,-46.891 128.72,-66.875 12.753,7.303 35.309,17.723 58.469,16.281 138.56,-8.6233 323.04,-80.256 448.09,-143.97 24.749,-12.609 56.625,-33.596 59.875,-52.969 -6.3147,-10.684 -17.416,-13.976 -32.344,-14.094 z" />
      <path
         id="path3854"
         sodipodi:nodetypes="sscsscs"
         style="fill:#51cd00;fill-opacity:1"
         inkscape:connector-curvature="0"
         d="M 166.32,284.8 C 220.26,126.04 356.34,17 462.76,-80.53 c 31.853,-29.194 52.179,-55.108 75.182,-45.782 9.1695,17.372 -3.4459,53.42 -15.471,78.458 -60.762,126.52 -163.93,295.37 -268.85,386.29 -26.626,23.072 -68.917,23.614 -68.917,23.614 0,0 -28.318,-48.02 -18.385,-77.254 z" />
      <path
         id="path3856"
         sodipodi:nodetypes="cccccccccccccscccccccccccccccccccccc"
         style="opacity:0.80282;fill:#225500"
         inkscape:connector-curvature="0"
         d="m 181.54,245.97 c -1.1809,2.6599 -2.3294,5.3402 -3.4643,8.0292 l 37.874,16.641 z m -4.8006,11.172 c -1.2226,2.9569 -2.3976,5.9375 -3.563,8.9301 l 32.036,11.824 z m -4.6215,11.664 c -1.0963,2.8689 -2.192,5.7377 -3.2342,8.6398 l 22.245,4.4952 z m -4.2842,11.642 c -0.50768,1.4455 -1.026,2.8902 -1.52,4.3441 -0.65789,1.9362 -1.1392,3.9622 -1.4808,6.0438 l 19.08,0.45118 z m -3.4029,13.879 c -0.1917,2.2288 -0.26478,4.5005 -0.18054,6.8205 l 14.846,-2.3712 z m 0.11751,11.074 c 0.089,0.91029 0.20111,1.8257 0.32291,2.7412 l 10.674,0.9841 z m 1.1328,7.6658 c 0.24535,1.2915 0.4995,2.5879 0.79489,3.8747 l 10.67,0.54027 c -22.184,-16.947 -5.8577,-1.4386 -11.465,-4.415 z m 1.9585,8.4902 c 3.5628,13.085 9.1131,25.275 12.918,32.793 l 22.349,5.7448 c 9.579,-1.6458 21.684,-4.6802 33.246,-10.316 l 7.7718,-4.9088 c -29.96,5.6541 -59.741,9.097 -73.106,-20.664 z" />
      <path
         id="path3858"
         sodipodi:nodetypes="cccc"
         style="fill:#00c79a;stroke:#445500;stroke-width:3;fill-opacity:1;stroke-opacity:0.49666053"
         inkscape:connector-curvature="0"
         d="M 115.54,482.06 C 207.11,280.62 338.61,113.88 481.69,-49.94 347.23,115.95 220.44,285.78 135.47,492.21 Z" />
      <path
         id="path3860"
         sodipodi:nodetypes="cccccccccccccccccccccccccccccccccccccccccccc"
         style="opacity:0.64319;fill:#b3ff80"
         inkscape:connector-curvature="0"
         d="m 524.38,-80.374 11.294,-0.75687 c 0.30073,-0.97819 0.62571,-1.9575 0.90678,-2.9327 z m -5.2236,10.669 12.583,0.1074 c 0.75681,-2.0253 1.4843,-4.0601 2.1803,-6.1059 z m -5.9414,16.013 12.147,-0.46398 c 1.0346,-2.3003 2.0642,-4.6474 3.0662,-7.0571 z m -9.4716,13.911 14.125,1.4071 c 1.5478,-3.1662 3.0742,-6.3469 4.5711,-9.4635 z m -16.881,21.43 23.298,-4.4709 c 1.2804,-2.5481 2.5115,-5.0666 3.7618,-7.5879 z m -9.9244,18.058 25.117,-6.6735 c 1.5937,-3.0882 3.1832,-6.141 4.7358,-9.1961 z m -15.54,19.519 32.36,-10.272 c 1.5917,-3.0064 3.1757,-6.0154 4.7313,-8.9961 z m -11.7,18.412 36.27,-14.168 c 1.446,-2.6699 2.9079,-5.3267 4.3272,-7.9802 z m -13.776,17.123 40.743,-14.325 c 1.9614,-3.5286 3.9131,-7.0366 5.8309,-10.543 z M 418.22,78.972 467.795,56.167 c 1.6325,-2.8677 3.248,-5.7212 4.8535,-8.5783 z m -13.931,23.042 53.095,-27.76 c 2.0618,-3.5239 4.101,-7.056 6.1244,-10.57 z" />
    </g>
  </g>
  <metadata
     id="metadata29">
    <rdf:RDF>
      <cc:Work>
        <dc:format>image/svg+xml</dc:format>
        <dc:type
           rdf:resource="http://purl.org/dc/dcmitype/StillImage" />
        <cc:license
           rdf:resource="http://creativecommons.org/publicdomain/zero/1.0/" />
        <dc:publisher>
          <cc:Agent
             rdf:about="http://openclipart.org/">
            <dc:title>Openclipart</dc:title>
          </cc:Agent>
        </dc:publisher>
        <dc:title></dc:title>
        <dc:date>2011-06-26T05:21:26</dc:date>
        <dc:description>Colored feather</dc:description>
        <dc:source>https://openclipart.org/detail/147313/colored-feather-by-gsagri04</dc:source>
        <dc:creator>
          <cc:Agent>
            <dc:title>gsagri04</dc:title>
          </cc:Agent>
        </dc:creator>
        <dc:subject>
          <rdf:Bag>
            <rdf:li>Color</rdf:li>
            <rdf:li>bird</rdf:li>
            <rdf:li>feather</rdf:li>
          </rdf:Bag>
        </dc:subject>
      </cc:Work>
      <cc:License
         rdf:about="http://creativecommons.org/publicdomain/zero/1.0/">
        <cc:permits
           rdf:resource="http://creativecommons.org/ns#Reproduction" />
        <cc:permits
           rdf:resource="http://creativecommons.org/ns#Distribution" />
        <cc:permits
           rdf:resource="http://creativecommons.org/ns#DerivativeWorks" />
      </cc:License>
    </rdf:RDF>
  </metadata>
</svg>
